<svg width="180" height="180" viewBox="0 0 180 180" fill="none" xmlns="http://www.w3.org/2000/svg">
<g clip-path="url(#clip0_601_2)">
<path d="M90 168.75C69.1142 168.75 49.0838 160.453 34.3153 145.685C19.5469 130.916 11.25 110.886 11.25 90C11.25 69.1142 19.5469 49.0838 34.3153 34.3153C49.0838 19.5469 69.1142 11.25 90 11.25C110.886 11.25 130.916 19.5469 145.685 34.3153C160.453 49.0838 168.75 69.1142 168.75 90C168.75 110.886 160.453 130.916 145.685 145.685C130.916 160.453 110.886 168.75 90 168.75ZM90 180C113.869 180 136.761 170.518 153.64 153.64C170.518 136.761 180 113.869 180 90C180 66.1305 170.518 43.2387 153.64 26.3604C136.761 9.48212 113.869 0 90 0C66.1305 0 43.2387 9.48212 26.3604 26.3604C9.48212 43.2387 0 66.1305 0 90C0 113.869 9.48212 136.761 26.3604 153.64C43.2387 170.518 66.1305 180 90 180V180Z" fill="#FF0000"/>
<path d="M48.2062 139.871C49.4982 140.617 51.0335 140.819 52.4745 140.433C53.9155 140.047 55.144 139.104 55.89 137.812C59.345 131.824 64.3168 126.851 70.3049 123.395C76.293 119.938 83.086 118.121 90 118.125C104.569 118.125 117.292 126.034 124.11 137.812C124.861 139.094 126.089 140.026 127.525 140.406C128.961 140.785 130.489 140.582 131.775 139.839C133.062 139.096 134.002 137.875 134.391 136.441C134.78 135.008 134.587 133.479 133.852 132.187C129.41 124.489 123.018 118.096 115.32 113.652C107.622 109.208 98.8887 106.871 90 106.875C81.1118 106.873 72.3797 109.212 64.6818 113.655C56.984 118.098 50.5916 124.49 46.1475 132.187C45.4016 133.479 45.1995 135.015 45.5856 136.456C45.9717 137.897 46.9143 139.125 48.2062 139.871ZM126.855 45.5962C127.516 45.2585 128.237 45.055 128.978 44.9974C129.718 44.9398 130.462 45.0293 131.167 45.2607C131.873 45.4921 132.525 45.8608 133.087 46.3456C133.65 46.8304 134.11 47.4217 134.443 48.0854C134.775 48.7491 134.973 49.472 135.025 50.2126C135.077 50.9531 134.982 51.6966 134.745 52.4001C134.508 53.1037 134.134 53.7534 133.645 54.3118C133.156 54.8702 132.561 55.3263 131.895 55.6537L120.544 61.3237C122.524 64.3612 123.75 68.5237 123.75 73.125C123.75 82.44 118.71 90 112.5 90C106.29 90 101.25 82.44 101.25 73.125C101.25 70.3462 101.7 67.725 102.487 65.4075C101.964 64.7513 101.594 63.9868 101.403 63.1695C101.212 62.3522 101.206 61.5027 101.385 60.6827C101.564 59.8628 101.923 59.093 102.437 58.4293C102.951 57.7657 103.606 57.2249 104.355 56.8462L126.855 45.5962V45.5962ZM53.145 45.5962C51.8129 44.9416 50.276 44.8399 48.8693 45.3135C47.4626 45.7871 46.3 46.7974 45.635 48.1244C44.9701 49.4514 44.8565 50.9875 45.3192 52.3978C45.7818 53.8082 46.7832 54.9785 48.105 55.6537L59.4562 61.3237C57.2847 64.8716 56.1723 68.9661 56.25 73.125C56.25 82.44 61.29 90 67.5 90C73.71 90 78.75 82.44 78.75 73.125C78.75 70.3462 78.3 67.725 77.5125 65.4075C78.0358 64.7513 78.4062 63.9868 78.5969 63.1695C78.7876 62.3522 78.7937 61.5027 78.6149 60.6827C78.436 59.8628 78.0766 59.093 77.5629 58.4293C77.0492 57.7657 76.394 57.2249 75.645 56.8462L53.145 45.5962V45.5962Z" fill="#FF0000"/>
</g>
<defs>
<clipPath id="clip0_601_2">
<rect width="180" height="180" fill="white"/>
</clipPath>
</defs>
</svg>
