<svg width="180" height="180" viewBox="0 0 180 180" fill="none" xmlns="http://www.w3.org/2000/svg">
<g clip-path="url(#clip0_601_6)">
<path d="M90 168.75C69.1142 168.75 49.0838 160.453 34.3153 145.685C19.5469 130.916 11.25 110.886 11.25 90C11.25 69.1142 19.5469 49.0838 34.3153 34.3153C49.0838 19.5469 69.1142 11.25 90 11.25C110.886 11.25 130.916 19.5469 145.685 34.3153C160.453 49.0838 168.75 69.1142 168.75 90C168.75 110.886 160.453 130.916 145.685 145.685C130.916 160.453 110.886 168.75 90 168.75ZM90 180C113.869 180 136.761 170.518 153.64 153.64C170.518 136.761 180 113.869 180 90C180 66.1305 170.518 43.2387 153.64 26.3604C136.761 9.48212 113.869 0 90 0C66.1305 0 43.2387 9.48212 26.3604 26.3604C9.48212 43.2387 0 66.1305 0 90C0 113.869 9.48212 136.761 26.3604 153.64C43.2387 170.518 66.1305 180 90 180V180Z" fill="black"/>
<path d="M45 118.125C45 119.617 45.5926 121.048 46.6475 122.102C47.7024 123.157 49.1332 123.75 50.625 123.75H129.375C130.867 123.75 132.298 123.157 133.352 122.102C134.407 121.048 135 119.617 135 118.125C135 116.633 134.407 115.202 133.352 114.148C132.298 113.093 130.867 112.5 129.375 112.5H50.625C49.1332 112.5 47.7024 113.093 46.6475 114.148C45.5926 115.202 45 116.633 45 118.125ZM78.75 73.125C78.75 63.81 73.71 56.25 67.5 56.25C61.29 56.25 56.25 63.81 56.25 73.125C56.25 82.44 61.29 90 67.5 90C73.71 90 78.75 82.44 78.75 73.125ZM123.75 73.125C123.75 63.81 118.71 56.25 112.5 56.25C106.29 56.25 101.25 63.81 101.25 73.125C101.25 82.44 106.29 90 112.5 90C118.71 90 123.75 82.44 123.75 73.125Z" fill="black"/>
</g>
<defs>
<clipPath id="clip0_601_6">
<rect width="180" height="180" fill="white"/>
</clipPath>
</defs>
</svg>
