<svg width="180" height="180" viewBox="0 0 180 180" fill="none" xmlns="http://www.w3.org/2000/svg">
<g clip-path="url(#clip0_601_10)">
<path fill-rule="evenodd" clip-rule="evenodd" d="M90 170C134.185 170 170 134.185 170 90C170 45.815 134.185 10 90 10C45.815 10 10 45.815 10 90C10 134.185 45.815 170 90 170ZM90 180C139.705 180 180 139.705 180 90C180 40.295 139.705 0 90 0C40.295 0 0 40.295 0 90C0 139.705 40.295 180 90 180Z" fill="black"/>
<path fill-rule="evenodd" clip-rule="evenodd" d="M53.475 110C61.25 129.16 75.575 140 90 140C104.43 140 118.75 129.16 126.525 110H53.475ZM90 150C69.81 150 52.31 134.76 43.71 112.5C43.6258 112.285 43.5425 112.07 43.46 111.855C41.23 105.9 46 100 52.365 100H127.64C134.005 100 138.78 105.9 136.54 111.855C136.459 112.07 136.377 112.285 136.295 112.5C127.69 134.76 110.19 150 90 150Z" fill="black"/>
<path d="M76.51 82.2098C77.16 80.4198 76.965 78.2348 76.43 76.2448C75.7859 73.9531 74.7544 71.7885 73.38 69.8448C70.475 65.6998 65.66 61.8948 59.155 61.6148C52.42 61.3348 47.39 65.6098 44.29 70.1448C42.8011 72.3277 41.631 74.7117 40.815 77.2248C40.1 79.4548 39.72 81.7348 39.97 83.5598C40.0274 83.976 40.1888 84.3709 40.4392 84.7082C40.6896 85.0454 41.0209 85.3142 41.4026 85.4896C41.7843 85.665 42.204 85.7413 42.623 85.7117C43.042 85.682 43.4468 85.5473 43.8 85.3198C45.8 84.0398 47.895 82.2848 49.835 80.6648C50.715 79.9248 51.57 79.2148 52.36 78.5898C55.17 76.3698 57.36 75.1048 59.17 75.0148C60.895 74.9298 62.885 75.9148 65.395 77.7948C66.295 78.4648 67.165 79.1748 68.065 79.9148L69.04 80.7098C70.26 81.6948 71.56 82.7048 72.87 83.4948C73.186 83.6854 73.5402 83.8037 73.9073 83.8411C74.2745 83.8785 74.6453 83.8343 74.9933 83.7114C75.3412 83.5886 75.6577 83.3902 75.9199 83.1306C76.1822 82.871 76.3837 82.5566 76.51 82.2098V82.2098ZM103.065 82.2098C102.415 80.4198 102.615 78.2348 103.15 76.2448C103.71 74.1648 104.745 71.9298 106.2 69.8448C109.1 65.6998 113.92 61.8948 120.425 61.6148C127.155 61.3348 132.19 65.6098 135.29 70.1448C136.86 72.4448 138.03 74.9348 138.765 77.2248C139.475 79.4548 139.855 81.7348 139.605 83.5598C139.547 83.9752 139.386 84.3693 139.136 84.7059C138.886 85.0425 138.555 85.3108 138.174 85.4861C137.793 85.6614 137.374 85.738 136.956 85.709C136.537 85.6799 136.133 85.5461 135.78 85.3198C133.78 84.0398 131.68 82.2848 129.745 80.6648C128.912 79.9622 128.071 79.2704 127.22 78.5898C124.405 76.3698 122.22 75.1048 120.405 75.0148C118.68 74.9298 116.69 75.9148 114.185 77.7948C113.285 78.4648 112.415 79.1748 111.515 79.9148L110.535 80.7098C109.323 81.7223 108.046 82.6527 106.71 83.4948C106.394 83.6863 106.039 83.8053 105.671 83.8433C105.304 83.8812 104.932 83.8372 104.584 83.7143C104.235 83.5914 103.918 83.3927 103.655 83.1325C103.393 82.8724 103.191 82.5573 103.065 82.2098V82.2098Z" fill="black"/>
</g>
<defs>
<clipPath id="clip0_601_10">
<rect width="180" height="180" fill="white"/>
</clipPath>
</defs>
</svg>
